<?xml version="1.0" encoding="UTF-8" standalone="no"?>
<!DOCTYPE svg PUBLIC "-//W3C//DTD SVG 1.1//EN"
 "http://www.w3.org/Graphics/SVG/1.1/DTD/svg11.dtd">
<!-- Generated by graphviz version 2.38.0 (20140413.2041)
 -->
<!-- Title: G Pages: 1 -->
<svg width="698pt" height="124pt"
 viewBox="0.00 0.00 698.10 123.98" xmlns="http://www.w3.org/2000/svg" xmlns:xlink="http://www.w3.org/1999/xlink">
<g id="graph0" class="graph" transform="scale(1 1) rotate(0) translate(7.992 115.992)">
<title>G</title>
<polygon fill="#000000" stroke="none" points="-7.992,7.992 -7.992,-115.992 690.113,-115.992 690.113,7.992 -7.992,7.992"/>
<!-- index.js -->
<g id="node1" class="node"><title>index.js</title>
<ellipse fill="none" stroke="#c6c5fe" cx="342.035" cy="-90" rx="42.4939" ry="18"/>
<text text-anchor="middle" x="342.035" y="-86.3" font-family="Arial" font-size="14.00" fill="#c6c5fe">index.js</text>
</g>
<!-- ../node_modules/fun&#45;curry/src/index.js -->
<g id="node2" class="node"><title>../node_modules/fun&#45;curry/src/index.js</title>
<ellipse fill="none" stroke="#cfffac" cx="167.035" cy="-18" rx="167.07" ry="18"/>
<text text-anchor="middle" x="167.035" y="-14.3" font-family="Arial" font-size="14.00" fill="#cfffac">../node_modules/fun&#45;curry/src/index.js</text>
</g>
<!-- index.js&#45;&gt;../node_modules/fun&#45;curry/src/index.js -->
<g id="edge1" class="edge"><title>index.js&#45;&gt;../node_modules/fun&#45;curry/src/index.js</title>
<path fill="none" stroke="#757575" d="M312.349,-77.1255C286.567,-66.8127 248.664,-51.6514 218.033,-39.399"/>
<polygon fill="#757575" stroke="#757575" points="218.952,-35.9972 208.367,-35.5329 216.352,-42.4966 218.952,-35.9972"/>
</g>
<!-- ../node_modules/guarded/src/index.js -->
<g id="node3" class="node"><title>../node_modules/guarded/src/index.js</title>
<ellipse fill="none" stroke="#cfffac" cx="517.035" cy="-18" rx="165.171" ry="18"/>
<text text-anchor="middle" x="517.035" y="-14.3" font-family="Arial" font-size="14.00" fill="#cfffac">../node_modules/guarded/src/index.js</text>
</g>
<!-- index.js&#45;&gt;../node_modules/guarded/src/index.js -->
<g id="edge2" class="edge"><title>index.js&#45;&gt;../node_modules/guarded/src/index.js</title>
<path fill="none" stroke="#757575" d="M371.722,-77.1255C397.504,-66.8127 435.407,-51.6514 466.038,-39.399"/>
<polygon fill="#757575" stroke="#757575" points="467.718,-42.4966 475.703,-35.5329 465.118,-35.9972 467.718,-42.4966"/>
</g>
</g>
</svg>
