<?xml version="1.0" encoding="UTF-8" standalone="no"?>
<!DOCTYPE svg PUBLIC "-//W3C//DTD SVG 1.1//EN"
 "http://www.w3.org/Graphics/SVG/1.1/DTD/svg11.dtd">
<!-- Generated by graphviz version 2.38.0 (20140413.2041)
 -->
<!-- Title: G Pages: 1 -->
<svg width="1814pt" height="124pt"
 viewBox="0.00 0.00 1814.10 123.98" xmlns="http://www.w3.org/2000/svg" xmlns:xlink="http://www.w3.org/1999/xlink">
<g id="graph0" class="graph" transform="scale(1 1) rotate(0) translate(7.992 115.992)">
<title>G</title>
<polygon fill="#000000" stroke="none" points="-7.992,7.992 -7.992,-115.992 1806.11,-115.992 1806.11,7.992 -7.992,7.992"/>
<!-- index.js -->
<g id="node1" class="node"><title>index.js</title>
<ellipse fill="none" stroke="#c6c5fe" cx="909.035" cy="-90" rx="42.4939" ry="18"/>
<text text-anchor="middle" x="909.035" y="-86.3" font-family="Arial" font-size="14.00" fill="#c6c5fe">index.js</text>
</g>
<!-- ../node_modules/fun&#45;array/src/index.js -->
<g id="node2" class="node"><title>../node_modules/fun&#45;array/src/index.js</title>
<ellipse fill="none" stroke="#cfffac" cx="167.035" cy="-18" rx="167.07" ry="18"/>
<text text-anchor="middle" x="167.035" y="-14.3" font-family="Arial" font-size="14.00" fill="#cfffac">../node_modules/fun&#45;array/src/index.js</text>
</g>
<!-- index.js&#45;&gt;../node_modules/fun&#45;array/src/index.js -->
<g id="edge1" class="edge"><title>index.js&#45;&gt;../node_modules/fun&#45;array/src/index.js</title>
<path fill="none" stroke="#757575" d="M868.191,-85.2166C775.051,-76.5802 539.781,-54.7135 343.035,-36 328.119,-34.5813 312.493,-33.0856 296.97,-31.5938"/>
<polygon fill="#757575" stroke="#757575" points="297.082,-28.0885 286.793,-30.615 296.412,-35.0564 297.082,-28.0885"/>
</g>
<!-- ../node_modules/fun&#45;boolean/src/index.js -->
<g id="node3" class="node"><title>../node_modules/fun&#45;boolean/src/index.js</title>
<ellipse fill="none" stroke="#cfffac" cx="532.035" cy="-18" rx="180.068" ry="18"/>
<text text-anchor="middle" x="532.035" y="-14.3" font-family="Arial" font-size="14.00" fill="#cfffac">../node_modules/fun&#45;boolean/src/index.js</text>
</g>
<!-- index.js&#45;&gt;../node_modules/fun&#45;boolean/src/index.js -->
<g id="edge2" class="edge"><title>index.js&#45;&gt;../node_modules/fun&#45;boolean/src/index.js</title>
<path fill="none" stroke="#757575" d="M871.161,-81.9676C813.681,-71.295 702.73,-50.694 623.383,-35.9612"/>
<polygon fill="#757575" stroke="#757575" points="623.854,-32.4887 613.383,-34.1043 622.576,-39.3711 623.854,-32.4887"/>
</g>
<!-- ../node_modules/fun&#45;function/src/index.js -->
<g id="node4" class="node"><title>../node_modules/fun&#45;function/src/index.js</title>
<ellipse fill="none" stroke="#cfffac" cx="909.035" cy="-18" rx="178.969" ry="18"/>
<text text-anchor="middle" x="909.035" y="-14.3" font-family="Arial" font-size="14.00" fill="#cfffac">../node_modules/fun&#45;function/src/index.js</text>
</g>
<!-- index.js&#45;&gt;../node_modules/fun&#45;function/src/index.js -->
<g id="edge3" class="edge"><title>index.js&#45;&gt;../node_modules/fun&#45;function/src/index.js</title>
<path fill="none" stroke="#757575" d="M909.035,-71.6966C909.035,-63.9827 909.035,-54.7125 909.035,-46.1124"/>
<polygon fill="#757575" stroke="#757575" points="912.535,-46.1043 909.035,-36.1043 905.535,-46.1044 912.535,-46.1043"/>
</g>
<!-- ../node_modules/fun&#45;object/src/index.js -->
<g id="node5" class="node"><title>../node_modules/fun&#45;object/src/index.js</title>
<ellipse fill="none" stroke="#cfffac" cx="1278.04" cy="-18" rx="172.47" ry="18"/>
<text text-anchor="middle" x="1278.04" y="-14.3" font-family="Arial" font-size="14.00" fill="#cfffac">../node_modules/fun&#45;object/src/index.js</text>
</g>
<!-- index.js&#45;&gt;../node_modules/fun&#45;object/src/index.js -->
<g id="edge4" class="edge"><title>index.js&#45;&gt;../node_modules/fun&#45;object/src/index.js</title>
<path fill="none" stroke="#757575" d="M946.791,-81.8377C1003.22,-71.1331 1111.19,-50.6517 1188.53,-35.9798"/>
<polygon fill="#757575" stroke="#757575" points="1189.58,-39.3426 1198.75,-34.0401 1188.28,-32.4653 1189.58,-39.3426"/>
</g>
<!-- ../node_modules/guarded/src/index.js -->
<g id="node6" class="node"><title>../node_modules/guarded/src/index.js</title>
<ellipse fill="none" stroke="#cfffac" cx="1633.04" cy="-18" rx="165.171" ry="18"/>
<text text-anchor="middle" x="1633.04" y="-14.3" font-family="Arial" font-size="14.00" fill="#cfffac">../node_modules/guarded/src/index.js</text>
</g>
<!-- index.js&#45;&gt;../node_modules/guarded/src/index.js -->
<g id="edge5" class="edge"><title>index.js&#45;&gt;../node_modules/guarded/src/index.js</title>
<path fill="none" stroke="#757575" d="M949.746,-85.0956C1040.94,-76.3456 1268.55,-54.483 1459.04,-36 1473.78,-34.5692 1489.23,-33.0661 1504.57,-31.5702"/>
<polygon fill="#757575" stroke="#757575" points="1505.02,-35.0431 1514.64,-30.589 1504.34,-28.0762 1505.02,-35.0431"/>
</g>
</g>
</svg>
