<?xml version="1.0" encoding="UTF-8" standalone="no"?>
<!DOCTYPE svg PUBLIC "-//W3C//DTD SVG 1.1//EN"
 "http://www.w3.org/Graphics/SVG/1.1/DTD/svg11.dtd">
<!-- Generated by graphviz version 2.38.0 (20140413.2041)
 -->
<!-- Title: G Pages: 1 -->
<svg width="1722pt" height="124pt"
 viewBox="0.00 0.00 1722.26 123.98" xmlns="http://www.w3.org/2000/svg" xmlns:xlink="http://www.w3.org/1999/xlink">
<g id="graph0" class="graph" transform="scale(1 1) rotate(0) translate(7.992 115.992)">
<title>G</title>
<polygon fill="#000000" stroke="none" points="-7.992,7.992 -7.992,-115.992 1714.26,-115.992 1714.26,7.992 -7.992,7.992"/>
<!-- index -->
<g id="node1" class="node"><title>index</title>
<ellipse fill="none" stroke="#c6c5fe" cx="862.286" cy="-90" rx="32.4942" ry="18"/>
<text text-anchor="middle" x="862.286" y="-86.3" font-family="Arial" font-size="14.00" fill="#c6c5fe">index</text>
</g>
<!-- ../node_modules/fun&#45;array/src/index -->
<g id="node2" class="node"><title>../node_modules/fun&#45;array/src/index</title>
<ellipse fill="none" stroke="#cfffac" cx="157.286" cy="-18" rx="157.072" ry="18"/>
<text text-anchor="middle" x="157.286" y="-14.3" font-family="Arial" font-size="14.00" fill="#cfffac">../node_modules/fun&#45;array/src/index</text>
</g>
<!-- index&#45;&gt;../node_modules/fun&#45;array/src/index -->
<g id="edge1" class="edge"><title>index&#45;&gt;../node_modules/fun&#45;array/src/index</title>
<path fill="none" stroke="#757575" d="M830.387,-85.9087C747.023,-77.8203 515.781,-55.3206 323.286,-36 309.234,-34.5896 294.514,-33.0998 279.89,-31.6122"/>
<polygon fill="#757575" stroke="#757575" points="280.093,-28.1149 269.79,-30.5835 279.384,-35.0789 280.093,-28.1149"/>
</g>
<!-- ../node_modules/fun&#45;boolean/src/index -->
<g id="node3" class="node"><title>../node_modules/fun&#45;boolean/src/index</title>
<ellipse fill="none" stroke="#cfffac" cx="503.286" cy="-18" rx="170.87" ry="18"/>
<text text-anchor="middle" x="503.286" y="-14.3" font-family="Arial" font-size="14.00" fill="#cfffac">../node_modules/fun&#45;boolean/src/index</text>
</g>
<!-- index&#45;&gt;../node_modules/fun&#45;boolean/src/index -->
<g id="edge2" class="edge"><title>index&#45;&gt;../node_modules/fun&#45;boolean/src/index</title>
<path fill="none" stroke="#757575" d="M831.987,-83.0922C779.302,-72.8192 668.958,-51.3036 590.675,-36.0396"/>
<polygon fill="#757575" stroke="#757575" points="591.298,-32.5953 580.813,-34.1167 589.959,-39.4659 591.298,-32.5953"/>
</g>
<!-- ../node_modules/fun&#45;function/src/index -->
<g id="node4" class="node"><title>../node_modules/fun&#45;function/src/index</title>
<ellipse fill="none" stroke="#cfffac" cx="862.286" cy="-18" rx="169.77" ry="18"/>
<text text-anchor="middle" x="862.286" y="-14.3" font-family="Arial" font-size="14.00" fill="#cfffac">../node_modules/fun&#45;function/src/index</text>
</g>
<!-- index&#45;&gt;../node_modules/fun&#45;function/src/index -->
<g id="edge3" class="edge"><title>index&#45;&gt;../node_modules/fun&#45;function/src/index</title>
<path fill="none" stroke="#757575" d="M862.286,-71.6966C862.286,-63.9827 862.286,-54.7125 862.286,-46.1124"/>
<polygon fill="#757575" stroke="#757575" points="865.786,-46.1043 862.286,-36.1043 858.786,-46.1044 865.786,-46.1043"/>
</g>
<!-- ../node_modules/fun&#45;object/src/index -->
<g id="node5" class="node"><title>../node_modules/fun&#45;object/src/index</title>
<ellipse fill="none" stroke="#cfffac" cx="1213.29" cy="-18" rx="163.271" ry="18"/>
<text text-anchor="middle" x="1213.29" y="-14.3" font-family="Arial" font-size="14.00" fill="#cfffac">../node_modules/fun&#45;object/src/index</text>
</g>
<!-- index&#45;&gt;../node_modules/fun&#45;object/src/index -->
<g id="edge4" class="edge"><title>index&#45;&gt;../node_modules/fun&#45;object/src/index</title>
<path fill="none" stroke="#757575" d="M892.516,-82.9713C944.317,-72.6405 1051.83,-51.1998 1128.08,-35.9925"/>
<polygon fill="#757575" stroke="#757575" points="1129.03,-39.3717 1138.15,-33.9834 1127.66,-32.5069 1129.03,-39.3717"/>
</g>
<!-- ../node_modules/guarded/src/index -->
<g id="node6" class="node"><title>../node_modules/guarded/src/index</title>
<ellipse fill="none" stroke="#cfffac" cx="1550.29" cy="-18" rx="155.972" ry="18"/>
<text text-anchor="middle" x="1550.29" y="-14.3" font-family="Arial" font-size="14.00" fill="#cfffac">../node_modules/guarded/src/index</text>
</g>
<!-- index&#45;&gt;../node_modules/guarded/src/index -->
<g id="edge5" class="edge"><title>index&#45;&gt;../node_modules/guarded/src/index</title>
<path fill="none" stroke="#757575" d="M894.126,-85.7921C975.754,-77.564 1199.16,-55.0187 1385.29,-36 1399.14,-34.5848 1413.64,-33.0978 1428.05,-31.6167"/>
<polygon fill="#757575" stroke="#757575" points="1428.42,-35.0975 1438.01,-30.5932 1427.71,-28.1342 1428.42,-35.0975"/>
</g>
</g>
</svg>
