<?xml version="1.0" encoding="UTF-8" standalone="no"?>
<!DOCTYPE svg PUBLIC "-//W3C//DTD SVG 1.1//EN"
 "http://www.w3.org/Graphics/SVG/1.1/DTD/svg11.dtd">
<!-- Generated by graphviz version 2.38.0 (20140413.2041)
 -->
<!-- Title: G Pages: 1 -->
<svg width="1060pt" height="124pt"
 viewBox="0.00 0.00 1060.10 123.98" xmlns="http://www.w3.org/2000/svg" xmlns:xlink="http://www.w3.org/1999/xlink">
<g id="graph0" class="graph" transform="scale(1 1) rotate(0) translate(7.992 115.992)">
<title>G</title>
<polygon fill="#000000" stroke="none" points="-7.992,7.992 -7.992,-115.992 1052.11,-115.992 1052.11,7.992 -7.992,7.992"/>
<!-- index.js -->
<g id="node1" class="node"><title>index.js</title>
<ellipse fill="none" stroke="#c6c5fe" cx="524.035" cy="-90" rx="42.4939" ry="18"/>
<text text-anchor="middle" x="524.035" y="-86.3" font-family="Arial" font-size="14.00" fill="#c6c5fe">index.js</text>
</g>
<!-- ../node_modules/fun&#45;curry/src/index.js -->
<g id="node2" class="node"><title>../node_modules/fun&#45;curry/src/index.js</title>
<ellipse fill="none" stroke="#cfffac" cx="167.035" cy="-18" rx="167.07" ry="18"/>
<text text-anchor="middle" x="167.035" y="-14.3" font-family="Arial" font-size="14.00" fill="#cfffac">../node_modules/fun&#45;curry/src/index.js</text>
</g>
<!-- index.js&#45;&gt;../node_modules/fun&#45;curry/src/index.js -->
<g id="edge1" class="edge"><title>index.js&#45;&gt;../node_modules/fun&#45;curry/src/index.js</title>
<path fill="none" stroke="#757575" d="M486.505,-81.6411C431.594,-70.8743 327.819,-50.5262 253.434,-35.9409"/>
<polygon fill="#757575" stroke="#757575" points="254.086,-32.5022 243.599,-34.0126 252.739,-39.3714 254.086,-32.5022"/>
</g>
<!-- ../node_modules/fun&#45;object/src/index.js -->
<g id="node3" class="node"><title>../node_modules/fun&#45;object/src/index.js</title>
<ellipse fill="none" stroke="#cfffac" cx="524.035" cy="-18" rx="172.47" ry="18"/>
<text text-anchor="middle" x="524.035" y="-14.3" font-family="Arial" font-size="14.00" fill="#cfffac">../node_modules/fun&#45;object/src/index.js</text>
</g>
<!-- index.js&#45;&gt;../node_modules/fun&#45;object/src/index.js -->
<g id="edge2" class="edge"><title>index.js&#45;&gt;../node_modules/fun&#45;object/src/index.js</title>
<path fill="none" stroke="#757575" d="M524.035,-71.6966C524.035,-63.9827 524.035,-54.7125 524.035,-46.1124"/>
<polygon fill="#757575" stroke="#757575" points="527.535,-46.1043 524.035,-36.1043 520.535,-46.1044 527.535,-46.1043"/>
</g>
<!-- ../node_modules/guarded/src/index.js -->
<g id="node4" class="node"><title>../node_modules/guarded/src/index.js</title>
<ellipse fill="none" stroke="#cfffac" cx="879.035" cy="-18" rx="165.171" ry="18"/>
<text text-anchor="middle" x="879.035" y="-14.3" font-family="Arial" font-size="14.00" fill="#cfffac">../node_modules/guarded/src/index.js</text>
</g>
<!-- index.js&#45;&gt;../node_modules/guarded/src/index.js -->
<g id="edge3" class="edge"><title>index.js&#45;&gt;../node_modules/guarded/src/index.js</title>
<path fill="none" stroke="#757575" d="M561.69,-81.575C616.227,-70.8213 718.731,-50.6092 792.504,-36.0624"/>
<polygon fill="#757575" stroke="#757575" points="793.581,-39.4175 802.715,-34.049 792.227,-32.5498 793.581,-39.4175"/>
</g>
</g>
</svg>
