<?xml version="1.0" encoding="UTF-8" standalone="no"?>
<!DOCTYPE svg PUBLIC "-//W3C//DTD SVG 1.1//EN"
 "http://www.w3.org/Graphics/SVG/1.1/DTD/svg11.dtd">
<!-- Generated by graphviz version 2.38.0 (20140413.2041)
 -->
<!-- Title: G Pages: 1 -->
<svg width="2092pt" height="124pt"
 viewBox="0.00 0.00 2092.26 123.98" xmlns="http://www.w3.org/2000/svg" xmlns:xlink="http://www.w3.org/1999/xlink">
<g id="graph0" class="graph" transform="scale(1 1) rotate(0) translate(7.992 115.992)">
<title>G</title>
<polygon fill="#000000" stroke="none" points="-7.992,7.992 -7.992,-115.992 2084.26,-115.992 2084.26,7.992 -7.992,7.992"/>
<!-- index -->
<g id="node1" class="node"><title>index</title>
<ellipse fill="none" stroke="#c6c5fe" cx="1037.29" cy="-90" rx="32.4942" ry="18"/>
<text text-anchor="middle" x="1037.29" y="-86.3" font-family="Arial" font-size="14.00" fill="#c6c5fe">index</text>
</g>
<!-- ../node_modules/fun&#45;array/src/index -->
<g id="node2" class="node"><title>../node_modules/fun&#45;array/src/index</title>
<ellipse fill="none" stroke="#cfffac" cx="157.286" cy="-18" rx="157.072" ry="18"/>
<text text-anchor="middle" x="157.286" y="-14.3" font-family="Arial" font-size="14.00" fill="#cfffac">../node_modules/fun&#45;array/src/index</text>
</g>
<!-- index&#45;&gt;../node_modules/fun&#45;array/src/index -->
<g id="edge1" class="edge"><title>index&#45;&gt;../node_modules/fun&#45;array/src/index</title>
<path fill="none" stroke="#757575" d="M1005.24,-86.9417C904.67,-80.4143 586.398,-59.2334 323.286,-36 308.866,-34.7267 293.751,-33.3028 278.761,-31.8355"/>
<polygon fill="#757575" stroke="#757575" points="278.71,-28.3135 268.414,-30.8142 278.022,-35.2796 278.71,-28.3135"/>
</g>
<!-- ../node_modules/fun&#45;boolean/src/index -->
<g id="node3" class="node"><title>../node_modules/fun&#45;boolean/src/index</title>
<ellipse fill="none" stroke="#cfffac" cx="503.286" cy="-18" rx="170.87" ry="18"/>
<text text-anchor="middle" x="503.286" y="-14.3" font-family="Arial" font-size="14.00" fill="#cfffac">../node_modules/fun&#45;boolean/src/index</text>
</g>
<!-- index&#45;&gt;../node_modules/fun&#45;boolean/src/index -->
<g id="edge2" class="edge"><title>index&#45;&gt;../node_modules/fun&#45;boolean/src/index</title>
<path fill="none" stroke="#757575" d="M1005.88,-84.8825C931.18,-75.091 739.955,-50.024 616.09,-33.7871"/>
<polygon fill="#757575" stroke="#757575" points="616.178,-30.2687 605.808,-32.4392 615.268,-37.2093 616.178,-30.2687"/>
</g>
<!-- ../node_modules/fun&#45;function/src/index -->
<g id="node4" class="node"><title>../node_modules/fun&#45;function/src/index</title>
<ellipse fill="none" stroke="#cfffac" cx="862.286" cy="-18" rx="169.77" ry="18"/>
<text text-anchor="middle" x="862.286" y="-14.3" font-family="Arial" font-size="14.00" fill="#cfffac">../node_modules/fun&#45;function/src/index</text>
</g>
<!-- index&#45;&gt;../node_modules/fun&#45;function/src/index -->
<g id="edge3" class="edge"><title>index&#45;&gt;../node_modules/fun&#45;function/src/index</title>
<path fill="none" stroke="#757575" d="M1011.46,-78.6713C985.59,-68.3217 945.077,-52.1164 912.796,-39.2039"/>
<polygon fill="#757575" stroke="#757575" points="914.084,-35.9495 903.499,-35.4852 911.484,-42.4488 914.084,-35.9495"/>
</g>
<!-- ../node_modules/fun&#45;object/src/index -->
<g id="node5" class="node"><title>../node_modules/fun&#45;object/src/index</title>
<ellipse fill="none" stroke="#cfffac" cx="1213.29" cy="-18" rx="163.271" ry="18"/>
<text text-anchor="middle" x="1213.29" y="-14.3" font-family="Arial" font-size="14.00" fill="#cfffac">../node_modules/fun&#45;object/src/index</text>
</g>
<!-- index&#45;&gt;../node_modules/fun&#45;object/src/index -->
<g id="edge4" class="edge"><title>index&#45;&gt;../node_modules/fun&#45;object/src/index</title>
<path fill="none" stroke="#757575" d="M1062.88,-78.8214C1088.91,-68.4678 1129.95,-52.1439 1162.59,-39.1621"/>
<polygon fill="#757575" stroke="#757575" points="1163.99,-42.3723 1171.99,-35.4243 1161.41,-35.8679 1163.99,-42.3723"/>
</g>
<!-- ../node_modules/fun&#45;predicate/src/index -->
<g id="node6" class="node"><title>../node_modules/fun&#45;predicate/src/index</title>
<ellipse fill="none" stroke="#cfffac" cx="1570.29" cy="-18" rx="176.269" ry="18"/>
<text text-anchor="middle" x="1570.29" y="-14.3" font-family="Arial" font-size="14.00" fill="#cfffac">../node_modules/fun&#45;predicate/src/index</text>
</g>
<!-- index&#45;&gt;../node_modules/fun&#45;predicate/src/index -->
<g id="edge5" class="edge"><title>index&#45;&gt;../node_modules/fun&#45;predicate/src/index</title>
<path fill="none" stroke="#757575" d="M1068.64,-84.8825C1142.98,-75.1195 1332.95,-50.1698 1456.61,-33.9291"/>
<polygon fill="#757575" stroke="#757575" points="1457.42,-37.353 1466.88,-32.5806 1456.51,-30.4126 1457.42,-37.353"/>
</g>
<!-- ../node_modules/guarded/src/index -->
<g id="node7" class="node"><title>../node_modules/guarded/src/index</title>
<ellipse fill="none" stroke="#cfffac" cx="1920.29" cy="-18" rx="155.972" ry="18"/>
<text text-anchor="middle" x="1920.29" y="-14.3" font-family="Arial" font-size="14.00" fill="#cfffac">../node_modules/guarded/src/index</text>
</g>
<!-- index&#45;&gt;../node_modules/guarded/src/index -->
<g id="edge6" class="edge"><title>index&#45;&gt;../node_modules/guarded/src/index</title>
<path fill="none" stroke="#757575" d="M1069.52,-86.9552C1170.65,-80.4674 1490.71,-59.3897 1755.29,-36 1769.74,-34.7225 1784.89,-33.2895 1799.91,-31.8117"/>
<polygon fill="#757575" stroke="#757575" points="1800.67,-35.2535 1810.27,-30.7828 1799.98,-28.2878 1800.67,-35.2535"/>
</g>
</g>
</svg>
